<svg xmlns="http://www.w3.org/2000/svg" width="240" height="240" viewBox="0 0 240 240" role="img" aria-labelledby="title"><title id="title">通信失敗・再試行</title><path d="M49 155C16 156 16 108 49 106 50 58 119 49 140 90 181 63 225 98 211 131 237 163 193 185 170 167H62Z" fill="#FFF3D5" stroke="#FFF3D5" stroke-width="2" stroke-linecap="round" stroke-linejoin="round"/><path d="M75 115q45-40 90 0 M91 137q29-26 58 0" fill="none" stroke="#95B78B" stroke-width="7" stroke-linecap="round" stroke-linejoin="round"/><circle cx="120" cy="159" r="5" fill="#654536"/><circle cx="177" cy="177" r="25" fill="#FAD7CB"/><path d="M187 171a12 12 0 1 0 0 13 M188 163v10h-10" fill="none" stroke="#654536" stroke-width="3" stroke-linecap="round" stroke-linejoin="round"/></svg>