<svg xmlns="http://www.w3.org/2000/svg" width="240" height="240" viewBox="0 0 240 240" role="img" aria-labelledby="title"><title id="title">投稿がまだない</title><path d="M49 155C16 156 16 108 49 106 50 58 119 49 140 90 181 63 225 98 211 131 237 163 193 185 170 167H62Z" fill="#FFF3D5" stroke="#FFF3D5" stroke-width="2" stroke-linecap="round" stroke-linejoin="round"/><g transform="translate(120 200) scale(1.25)"><path d="M0 0q-4-35 13-67" fill="none" stroke="#95B78B" stroke-width="5" stroke-linecap="round" stroke-linejoin="round"/><path d="M-2-20Q-42-23-40-58-8-57-2-20" fill="#95B78B" stroke="#95B78B" stroke-width="2" stroke-linecap="round" stroke-linejoin="round"/><path d="M7-42Q3-80 38-87 42-54 7-42" fill="#95B78B" stroke="#95B78B" stroke-width="2" stroke-linecap="round" stroke-linejoin="round"/><path d="M-2-20-26-43 M7-42 24-66" fill="none" stroke="#70976C" stroke-width="2" stroke-linecap="round" stroke-linejoin="round"/></g><circle cx="181" cy="70" r="8" fill="#F6CA65"/></svg>