<svg xmlns="http://www.w3.org/2000/svg" width="240" height="240" viewBox="0 0 240 240" role="img" aria-labelledby="title"><title id="title">ほほえむ太陽</title><path d="M180.00 120.00 L191.00 120.00" fill="none" stroke="#F6CA65" stroke-width="6" stroke-linecap="round" stroke-linejoin="round"/><path d="M168.54 155.27 L177.44 161.73" fill="none" stroke="#F6CA65" stroke-width="6" stroke-linecap="round" stroke-linejoin="round"/><path d="M138.54 177.06 L141.94 187.53" fill="none" stroke="#F6CA65" stroke-width="6" stroke-linecap="round" stroke-linejoin="round"/><path d="M101.46 177.06 L98.06 187.53" fill="none" stroke="#F6CA65" stroke-width="6" stroke-linecap="round" stroke-linejoin="round"/><path d="M71.46 155.27 L62.56 161.73" fill="none" stroke="#F6CA65" stroke-width="6" stroke-linecap="round" stroke-linejoin="round"/><path d="M60.00 120.00 L49.00 120.00" fill="none" stroke="#F6CA65" stroke-width="6" stroke-linecap="round" stroke-linejoin="round"/><path d="M71.46 84.73 L62.56 78.27" fill="none" stroke="#F6CA65" stroke-width="6" stroke-linecap="round" stroke-linejoin="round"/><path d="M101.46 62.94 L98.06 52.47" fill="none" stroke="#F6CA65" stroke-width="6" stroke-linecap="round" stroke-linejoin="round"/><path d="M138.54 62.94 L141.94 52.47" fill="none" stroke="#F6CA65" stroke-width="6" stroke-linecap="round" stroke-linejoin="round"/><path d="M168.54 84.73 L177.44 78.27" fill="none" stroke="#F6CA65" stroke-width="6" stroke-linecap="round" stroke-linejoin="round"/><circle cx="120" cy="120" r="48" fill="#F6CA65"/><circle cx="108" cy="105" r="28.799999999999997" fill="#FFDA82"/><g transform="translate(120 120) scale(1.0)"><path d="M-15-5q3-5 6 0 M9-5q3-5 6 0 M-8 8q8 9 16 0" fill="none" stroke="#654536" stroke-width="3" stroke-linecap="round" stroke-linejoin="round"/><circle cx="-20" cy="5" r="5" fill="#FAD7CB"/><circle cx="20" cy="5" r="5" fill="#FAD7CB"/></g></svg>